<svg width="357" height="52" viewBox="0 0 357 52" fill="none" xmlns="http://www.w3.org/2000/svg">
<g clip-path="url(#clip0_1744_91)">
<path d="M21.0206 0L0.0703125 20.2629L15.6158 39.9852L26.0557 39.8109L36.566 30.5164L31.3724 24.7445L23.01 32.1382L19.3657 32.2079L10.5278 20.9605L24.1719 7.74246H39.4356L53.3262 25.8256V13.0785L43.2736 0H21.0206Z" fill="#BEF264"/>
<path d="M27.4466 12.1891L16.9362 21.501L22.1298 27.2381L30.4923 19.8618L34.119 19.8095L42.9744 31.057L29.2952 44.2575H14.0666L0 25.9825V38.7297L10.211 52H32.4817L53.3263 31.8068V31.6499L37.8865 11.9973L27.4466 12.1891Z" fill="#BEF264"/>
<path d="M84.9382 37.673C83.2235 37.673 81.6869 37.3956 80.3285 36.841C78.97 36.2863 77.8789 35.4653 77.055 34.3782C76.2533 33.2911 75.8301 31.9821 75.7856 30.4512H81.8651C81.9541 31.3165 82.2548 31.9821 82.767 32.448C83.2791 32.8918 83.9472 33.1136 84.7712 33.1136C85.6173 33.1136 86.2854 32.925 86.7754 32.5478C87.2653 32.1485 87.5103 31.6049 87.5103 30.9171C87.5103 30.3402 87.3099 29.8633 86.909 29.4861C86.5304 29.1089 86.0516 28.7983 85.4727 28.5542C84.9159 28.3101 84.1142 28.0329 83.0676 27.7222C81.5533 27.2563 80.3173 26.7904 79.3598 26.3245C78.4022 25.8586 77.5783 25.1708 76.888 24.2611C76.1976 23.3514 75.8525 22.1645 75.8525 20.7002C75.8525 18.5258 76.643 16.8285 78.2241 15.6083C79.8051 14.3658 81.8651 13.7446 84.4037 13.7446C86.9869 13.7446 89.0691 14.3658 90.6502 15.6083C92.2312 16.8285 93.0775 18.537 93.1889 20.7334H87.0092C86.9647 19.9791 86.6862 19.3911 86.1741 18.9696C85.6619 18.5258 85.005 18.304 84.2033 18.304C83.5129 18.304 82.9562 18.4925 82.5332 18.8698C82.11 19.2247 81.8985 19.7462 81.8985 20.4339C81.8985 21.1882 82.2548 21.7762 82.9674 22.1978C83.6799 22.6193 84.7934 23.0742 86.3078 23.5622C87.822 24.0726 89.0468 24.5606 89.9821 25.0266C90.9397 25.4925 91.7636 26.1692 92.454 27.0566C93.1443 27.9441 93.4895 29.0867 93.4895 30.4845C93.4895 31.8157 93.1443 33.0249 92.454 34.112C91.7859 35.1991 90.8061 36.0644 89.5145 36.7078C88.2228 37.3513 86.6974 37.673 84.9382 37.673ZM95.869 28.1549C95.869 26.2246 96.2587 24.5385 97.0381 23.0963C97.8398 21.6541 98.9421 20.5449 100.345 19.7683C101.77 18.9917 103.396 18.6035 105.222 18.6035C107.56 18.6035 109.509 19.2137 111.067 20.4339C112.649 21.6541 113.684 23.3737 114.174 25.5923H108.095C107.582 24.1724 106.591 23.4624 105.122 23.4624C104.075 23.4624 103.24 23.8729 102.616 24.6938C101.993 25.4925 101.681 26.6461 101.681 28.1549C101.681 29.6636 101.993 30.8284 102.616 31.6493C103.24 32.448 104.075 32.8474 105.122 32.8474C106.591 32.8474 107.582 32.1373 108.095 30.7174H114.174C113.684 32.8918 112.649 34.6001 111.067 35.8426C109.486 37.085 107.538 37.7062 105.222 37.7062C103.396 37.7062 101.77 37.318 100.345 36.5414C98.9421 35.7649 97.8398 34.6556 97.0381 33.2134C96.2587 31.7713 95.869 30.0851 95.869 28.1549ZM134.8 27.8554C134.8 28.3878 134.766 28.9425 134.699 29.5194H121.772C121.861 30.673 122.228 31.5606 122.875 32.1818C123.543 32.7808 124.356 33.0803 125.313 33.0803C126.738 33.0803 127.73 32.4813 128.286 31.2832H134.365C134.053 32.5034 133.485 33.6017 132.662 34.5779C131.86 35.5542 130.847 36.3196 129.622 36.8742C128.398 37.4289 127.028 37.7062 125.513 37.7062C123.688 37.7062 122.061 37.318 120.637 36.5414C119.212 35.7649 118.098 34.6556 117.296 33.2134C116.494 31.7713 116.094 30.0851 116.094 28.1549C116.094 26.2246 116.483 24.5385 117.263 23.0963C118.064 21.6541 119.178 20.5449 120.603 19.7683C122.028 18.9917 123.665 18.6035 125.513 18.6035C127.317 18.6035 128.921 18.9807 130.324 19.735C131.727 20.4893 132.817 21.5654 133.597 22.9632C134.399 24.361 134.8 25.9917 134.8 27.8554ZM128.954 26.3578C128.954 25.3815 128.62 24.605 127.952 24.0282C127.284 23.4513 126.449 23.1629 125.447 23.1629C124.489 23.1629 123.676 23.4402 123.008 23.9949C122.362 24.5495 121.961 25.3372 121.806 26.3578H128.954ZM149.17 18.6701C151.352 18.6701 153.089 19.3801 154.381 20.8C155.695 22.1978 156.352 24.128 156.352 26.5907V37.44H150.674V27.3562C150.674 26.1137 150.35 25.1485 149.705 24.4608C149.059 23.773 148.19 23.4291 147.099 23.4291C146.008 23.4291 145.139 23.773 144.494 24.4608C143.848 25.1485 143.525 26.1137 143.525 27.3562V37.44H137.813V18.8698H143.525V21.3325C144.104 20.5116 144.883 19.8682 145.863 19.4022C146.843 18.9142 147.945 18.6701 149.17 18.6701ZM177.891 27.8554C177.891 28.3878 177.858 28.9425 177.791 29.5194H164.864C164.954 30.673 165.321 31.5606 165.966 32.1818C166.634 32.7808 167.447 33.0803 168.405 33.0803C169.831 33.0803 170.821 32.4813 171.378 31.2832H177.457C177.146 32.5034 176.578 33.6017 175.753 34.5779C174.952 35.5542 173.939 36.3196 172.714 36.8742C171.489 37.4289 170.12 37.7062 168.605 37.7062C166.779 37.7062 165.154 37.318 163.728 36.5414C162.303 35.7649 161.189 34.6556 160.388 33.2134C159.586 31.7713 159.185 30.0851 159.185 28.1549C159.185 26.2246 159.576 24.5385 160.354 23.0963C161.156 21.6541 162.27 20.5449 163.695 19.7683C165.121 18.9917 166.757 18.6035 168.605 18.6035C170.409 18.6035 172.012 18.9807 173.415 19.735C174.818 20.4893 175.91 21.5654 176.689 22.9632C177.49 24.361 177.891 25.9917 177.891 27.8554ZM172.046 26.3578C172.046 25.3815 171.712 24.605 171.043 24.0282C170.375 23.4513 169.54 23.1629 168.538 23.1629C167.581 23.1629 166.768 23.4402 166.1 23.9949C165.455 24.5495 165.054 25.3372 164.897 26.3578H172.046ZM189.389 37.673C187.674 37.673 186.138 37.3956 184.78 36.841C183.422 36.2863 182.33 35.4653 181.506 34.3782C180.704 33.2911 180.282 31.9821 180.237 30.4512H186.316C186.405 31.3165 186.706 31.9821 187.218 32.448C187.731 32.8918 188.399 33.1136 189.222 33.1136C190.069 33.1136 190.737 32.925 191.227 32.5478C191.716 32.1485 191.961 31.6049 191.961 30.9171C191.961 30.3402 191.761 29.8633 191.36 29.4861C190.981 29.1089 190.503 28.7983 189.924 28.5542C189.367 28.3101 188.566 28.0329 187.519 27.7222C186.004 27.2563 184.768 26.7904 183.811 26.3245C182.854 25.8586 182.029 25.1708 181.339 24.2611C180.649 23.3514 180.304 22.1645 180.304 20.7002C180.304 18.5258 181.094 16.8285 182.675 15.6083C184.257 14.3658 186.316 13.7446 188.855 13.7446C191.438 13.7446 193.52 14.3658 195.101 15.6083C196.683 16.8285 197.528 18.537 197.64 20.7334H191.46C191.415 19.9791 191.138 19.3911 190.625 18.9696C190.113 18.5258 189.456 18.304 188.654 18.304C187.964 18.304 187.407 18.4925 186.984 18.8698C186.562 19.2247 186.35 19.7462 186.35 20.4339C186.35 21.1882 186.706 21.7762 187.419 22.1978C188.131 22.6193 189.244 23.0742 190.759 23.5622C192.274 24.0726 193.498 24.5606 194.433 25.0266C195.39 25.4925 196.215 26.1692 196.905 27.0566C197.595 27.9441 197.941 29.0867 197.941 30.4845C197.941 31.8157 197.595 33.0249 196.905 34.112C196.237 35.1991 195.257 36.0644 193.966 36.7078C192.674 37.3513 191.148 37.673 189.389 37.673ZM228.213 18.8698L223.169 37.44H216.855L213.916 25.3926L210.876 37.44H204.596L199.519 18.8698H205.231L207.87 32.1485L211.01 18.8698H217.056L220.229 32.0819L222.835 18.8698H228.213ZM233.263 16.9395C232.261 16.9395 231.437 16.6511 230.791 16.0742C230.168 15.4752 229.856 14.743 229.856 13.8778C229.856 12.9903 230.168 12.2582 230.791 11.6813C231.437 11.0822 232.261 10.7827 233.263 10.7827C234.243 10.7827 235.045 11.0822 235.668 11.6813C236.314 12.2582 236.637 12.9903 236.637 13.8778C236.637 14.743 236.314 15.4752 235.668 16.0742C235.045 16.6511 234.243 16.9395 233.263 16.9395ZM236.102 18.8698V37.44H230.39V18.8698H236.102ZM250.63 32.6144V37.44H247.724C245.653 37.44 244.038 36.9408 242.881 35.9424C241.722 34.9218 241.144 33.2689 241.144 30.9837V23.5955H238.872V18.8698H241.144V14.3437H246.856V18.8698H250.597V23.5955H246.856V31.0502C246.856 31.6049 246.989 32.0042 247.257 32.2483C247.524 32.4924 247.969 32.6144 248.593 32.6144H250.63ZM252.676 28.1549C252.676 26.2246 253.066 24.5385 253.846 23.0963C254.647 21.6541 255.75 20.5449 257.153 19.7683C258.577 18.9917 260.203 18.6035 262.029 18.6035C264.368 18.6035 266.316 19.2137 267.875 20.4339C269.455 21.6541 270.491 23.3737 270.982 25.5923H264.902C264.39 24.1724 263.399 23.4624 261.929 23.4624C260.882 23.4624 260.047 23.8729 259.424 24.6938C258.8 25.4925 258.489 26.6461 258.489 28.1549C258.489 29.6636 258.8 30.8284 259.424 31.6493C260.047 32.448 260.882 32.8474 261.929 32.8474C263.399 32.8474 264.39 32.1373 264.902 30.7174H270.982C270.491 32.8918 269.455 34.6001 267.875 35.8426C266.294 37.085 264.345 37.7062 262.029 37.7062C260.203 37.7062 258.577 37.318 257.153 36.5414C255.75 35.7649 254.647 34.6556 253.846 33.2134C253.066 31.7713 252.676 30.0851 252.676 28.1549ZM285.494 18.6701C287.632 18.6701 289.346 19.3801 290.639 20.8C291.93 22.1978 292.576 24.128 292.576 26.5907V37.44H286.897V27.3562C286.897 26.1137 286.574 25.1485 285.929 24.4608C285.282 23.773 284.414 23.4291 283.323 23.4291C282.231 23.4291 281.363 23.773 280.718 24.4608C280.072 25.1485 279.749 26.1137 279.749 27.3562V37.44H274.037V12.8128H279.749V21.3658C280.327 20.5449 281.118 19.8903 282.121 19.4022C283.123 18.9142 284.247 18.6701 285.494 18.6701ZM314.115 27.8554C314.115 28.3878 314.082 28.9425 314.015 29.5194H301.088C301.177 30.673 301.545 31.5606 302.19 32.1818C302.858 32.7808 303.671 33.0803 304.628 33.0803C306.054 33.0803 307.045 32.4813 307.601 31.2832H313.681C313.37 32.5034 312.802 33.6017 311.977 34.5779C311.175 35.5542 310.163 36.3196 308.937 36.8742C307.713 37.4289 306.343 37.7062 304.829 37.7062C303.003 37.7062 301.378 37.318 299.952 36.5414C298.527 35.7649 297.413 34.6556 296.611 33.2134C295.81 31.7713 295.409 30.0851 295.409 28.1549C295.409 26.2246 295.799 24.5385 296.578 23.0963C297.38 21.6541 298.494 20.5449 299.918 19.7683C301.344 18.9917 302.981 18.6035 304.829 18.6035C306.633 18.6035 308.236 18.9807 309.639 19.735C311.042 20.4893 312.134 21.5654 312.912 22.9632C313.714 24.361 314.115 25.9917 314.115 27.8554ZM308.269 26.3578C308.269 25.3815 307.935 24.605 307.267 24.0282C306.599 23.4513 305.764 23.1629 304.762 23.1629C303.805 23.1629 302.992 23.4402 302.323 23.9949C301.678 24.5495 301.278 25.3372 301.121 26.3578H308.269ZM322.841 21.9648C323.509 20.9442 324.344 20.1455 325.346 19.5686C326.348 18.9696 327.462 18.6701 328.686 18.6701V24.6938H327.116C325.691 24.6938 324.622 25.0044 323.909 25.6256C323.196 26.2246 322.841 27.2896 322.841 28.8205V37.44H317.129V18.8698H322.841V21.9648ZM332.903 37.6397C332.152 37.6397 331.534 37.4234 331.049 36.9907C330.582 36.5414 330.348 35.9923 330.348 35.3434C330.348 34.6778 330.582 34.1203 331.049 33.671C331.534 33.2218 332.152 32.9971 332.903 32.9971C333.638 32.9971 334.239 33.2218 334.707 33.671C335.191 34.1203 335.434 34.6778 335.434 35.3434C335.434 35.9923 335.191 36.5414 334.707 36.9907C334.239 37.4234 333.638 37.6397 332.903 37.6397ZM339.506 24.6272C338.879 24.6272 338.365 24.447 337.961 24.0864C337.571 23.712 337.376 23.2544 337.376 22.7136C337.376 22.159 337.571 21.7014 337.961 21.3408C338.365 20.9664 338.879 20.7792 339.506 20.7792C340.118 20.7792 340.62 20.9664 341.009 21.3408C341.413 21.7014 341.614 22.159 341.614 22.7136C341.614 23.2544 341.413 23.712 341.009 24.0864C340.62 24.447 340.118 24.6272 339.506 24.6272ZM341.28 25.8336V37.44H337.71V25.8336H341.28ZM349.17 37.6064C348.029 37.6064 346.999 37.3638 346.08 36.8784C345.176 36.393 344.459 35.6998 343.93 34.7984C343.415 33.897 343.157 32.8432 343.157 31.6368C343.157 30.4442 343.422 29.3974 343.951 28.496C344.48 27.5808 345.203 26.8806 346.122 26.3952C347.04 25.9098 348.071 25.6672 349.212 25.6672C350.354 25.6672 351.383 25.9098 352.301 26.3952C353.22 26.8806 353.944 27.5808 354.473 28.496C355.002 29.3974 355.266 30.4442 355.266 31.6368C355.266 32.8294 354.995 33.8832 354.452 34.7984C353.924 35.6998 353.193 36.393 352.26 36.8784C351.341 37.3638 350.312 37.6064 349.17 37.6064ZM349.17 34.528C349.852 34.528 350.43 34.2784 350.903 33.7792C351.39 33.28 351.633 32.5658 351.633 31.6368C351.633 30.7078 351.397 29.9936 350.923 29.4944C350.464 28.9952 349.894 28.7456 349.212 28.7456C348.516 28.7456 347.938 28.9952 347.479 29.4944C347.019 29.9798 346.79 30.6938 346.79 31.6368C346.79 32.5658 347.013 33.28 347.458 33.7792C347.917 34.2784 348.488 34.528 349.17 34.528Z" fill="black"/>
</g>
<defs>
<clipPath id="clip0_1744_91">
<rect width="357" height="52" fill="white"/>
</clipPath>
</defs>
</svg>
