<svg width="325" height="48" viewBox="0 0 325 48" fill="none" xmlns="http://www.w3.org/2000/svg">
<g clip-path="url(#clip0_1469_236)">
<path d="M19.1363 0L0.0639648 18.7043L14.216 36.9094L23.7201 36.7485L33.2883 28.169L28.5603 22.8411L20.9474 29.666L17.6298 29.7303L9.58411 19.3481L22.0052 7.14688H35.9007L48.5462 23.839V12.0725L39.3947 0H19.1363Z" fill="#BEF264"/>
<path d="M24.9864 11.2515L15.4181 19.8471L20.1462 25.1429L27.7591 18.334L31.0607 18.2857L39.1224 28.668L26.6693 40.8531H12.8058L0 23.9839V35.7505L9.29577 48H29.5702L48.5464 29.3602V29.2153L34.4905 11.0745L24.9864 11.2515Z" fill="#BEF264"/>
<path d="M77.3248 34.7751C75.7638 34.7751 74.365 34.5191 73.1283 34.0071C71.8916 33.4952 70.8983 32.7373 70.1482 31.7339C69.4184 30.7304 69.0332 29.522 68.9927 28.1089H74.5272C74.6082 28.9076 74.8819 29.522 75.3482 29.9521C75.8144 30.3617 76.4226 30.5665 77.1728 30.5665C77.9431 30.5665 78.5513 30.3924 78.9974 30.0442C79.4433 29.6756 79.6664 29.1738 79.6664 28.539C79.6664 28.0065 79.4839 27.5662 79.119 27.218C78.7743 26.8698 78.3384 26.5832 77.8114 26.3578C77.3045 26.1325 76.5747 25.8766 75.6219 25.5898C74.2433 25.1598 73.1182 24.7297 72.2465 24.2996C71.3747 23.8695 70.6246 23.2347 69.9962 22.395C69.3677 21.5553 69.0535 20.4596 69.0535 19.1079C69.0535 17.1009 69.7731 15.5341 71.2126 14.4078C72.6519 13.2609 74.5272 12.6874 76.8383 12.6874C79.1899 12.6874 81.0854 13.2609 82.5248 14.4078C83.9642 15.5341 84.7346 17.1111 84.8359 19.1386H79.2102C79.1696 18.4424 78.9162 17.8996 78.45 17.5105C77.9837 17.1009 77.3857 16.8961 76.6558 16.8961C76.0273 16.8961 75.5205 17.0701 75.1354 17.4183C74.7501 17.746 74.5576 18.2273 74.5576 18.8622C74.5576 19.5585 74.8819 20.1012 75.5307 20.4903C76.1794 20.8794 77.193 21.2993 78.5716 21.7498C79.9501 22.2209 81.0652 22.6714 81.9167 23.1015C82.7884 23.5316 83.5384 24.1563 84.1669 24.9755C84.7954 25.7946 85.1096 26.8494 85.1096 28.1396C85.1096 29.3684 84.7954 30.4846 84.1669 31.4881C83.5588 32.4916 82.6667 33.2903 81.4909 33.8843C80.315 34.4782 78.9264 34.7751 77.3248 34.7751ZM87.2758 25.9892C87.2758 24.2074 87.6306 22.651 88.3402 21.3198C89.07 19.9885 90.0735 18.9646 91.3507 18.2478C92.6481 17.5309 94.128 17.1726 95.7904 17.1726C97.919 17.1726 99.6932 17.7358 101.112 18.8622C102.552 19.9885 103.494 21.5758 103.94 23.6238H98.4056C97.939 22.3131 97.0371 21.6577 95.6991 21.6577C94.7464 21.6577 93.9861 22.0366 93.4185 22.7943C92.8508 23.5316 92.5671 24.5965 92.5671 25.9892C92.5671 27.3819 92.8508 28.4571 93.4185 29.2148C93.9861 29.9521 94.7464 30.3207 95.6991 30.3207C97.0371 30.3207 97.939 29.6653 98.4056 28.3546H103.94C103.494 30.3617 102.552 31.9386 101.112 33.0855C99.6723 34.2324 97.8991 34.8059 95.7904 34.8059C94.128 34.8059 92.6481 34.4475 91.3507 33.7307C90.0735 33.0138 89.07 31.9899 88.3402 30.6587C87.6306 29.3274 87.2758 27.771 87.2758 25.9892ZM122.717 25.7127C122.717 26.2043 122.686 26.7162 122.626 27.2487H110.857C110.938 28.3137 111.273 29.1329 111.861 29.7063C112.469 30.2593 113.209 30.5358 114.081 30.5358C115.378 30.5358 116.281 29.9828 116.787 28.8769H122.322C122.037 30.0033 121.52 31.017 120.771 31.9182C120.041 32.8193 119.118 33.5259 118.003 34.0379C116.889 34.5498 115.642 34.8059 114.263 34.8059C112.601 34.8059 111.12 34.4475 109.823 33.7307C108.526 33.0138 107.512 31.9899 106.782 30.6587C106.053 29.3274 105.688 27.771 105.688 25.9892C105.688 24.2074 106.042 22.651 106.752 21.3198C107.482 19.9885 108.496 18.9646 109.793 18.2478C111.09 17.5309 112.58 17.1726 114.263 17.1726C115.905 17.1726 117.365 17.5208 118.642 18.217C119.919 18.9133 120.912 19.9066 121.622 21.1969C122.352 22.4871 122.717 23.9924 122.717 25.7127ZM117.395 24.3303C117.395 23.4292 117.091 22.7124 116.483 22.1799C115.875 21.6474 115.115 21.3812 114.202 21.3812C113.331 21.3812 112.591 21.6372 111.982 22.1492C111.394 22.6612 111.029 23.3883 110.888 24.3303H117.395ZM135.8 17.234C137.786 17.234 139.367 17.8894 140.543 19.2001C141.739 20.4903 142.338 22.2721 142.338 24.5454V34.5601H137.168V25.2519C137.168 24.105 136.873 23.2141 136.286 22.5793C135.698 21.9444 134.907 21.627 133.914 21.627C132.92 21.627 132.13 21.9444 131.542 22.5793C130.954 23.2141 130.66 24.105 130.66 25.2519V34.5601H125.46V17.4183H130.66V19.6916C131.187 18.9339 131.897 18.3399 132.789 17.9098C133.68 17.4593 134.684 17.234 135.8 17.234ZM161.946 25.7127C161.946 26.2043 161.915 26.7162 161.855 27.2487H150.086C150.168 28.3137 150.502 29.1329 151.09 29.7063C151.698 30.2593 152.438 30.5358 153.31 30.5358C154.608 30.5358 155.51 29.9828 156.016 28.8769H161.551C161.267 30.0033 160.75 31.017 160 31.9182C159.27 32.8193 158.348 33.5259 157.232 34.0379C156.118 34.5498 154.871 34.8059 153.492 34.8059C151.83 34.8059 150.35 34.4475 149.052 33.7307C147.755 33.0138 146.741 31.9899 146.011 30.6587C145.282 29.3274 144.917 27.771 144.917 25.9892C144.917 24.2074 145.272 22.651 145.981 21.3198C146.711 19.9885 147.725 18.9646 149.022 18.2478C150.32 17.5309 151.81 17.1726 153.492 17.1726C155.134 17.1726 156.594 17.5208 157.871 18.217C159.148 18.9133 160.142 19.9066 160.851 21.1969C161.581 22.4871 161.946 23.9924 161.946 25.7127ZM156.624 24.3303C156.624 23.4292 156.32 22.7124 155.712 22.1799C155.104 21.6474 154.344 21.3812 153.431 21.3812C152.56 21.3812 151.82 21.6372 151.211 22.1492C150.624 22.6612 150.259 23.3883 150.117 24.3303H156.624ZM172.413 34.7751C170.852 34.7751 169.453 34.5191 168.217 34.0071C166.981 33.4952 165.987 32.7373 165.237 31.7339C164.507 30.7304 164.122 29.522 164.081 28.1089H169.616C169.696 28.9076 169.97 29.522 170.437 29.9521C170.903 30.3617 171.512 30.5665 172.261 30.5665C173.032 30.5665 173.64 30.3924 174.086 30.0442C174.532 29.6756 174.755 29.1738 174.755 28.539C174.755 28.0065 174.572 27.5662 174.208 27.218C173.863 26.8698 173.427 26.5832 172.9 26.3578C172.393 26.1325 171.664 25.8766 170.71 25.5898C169.332 25.1598 168.206 24.7297 167.335 24.2996C166.464 23.8695 165.713 23.2347 165.085 22.395C164.457 21.5553 164.142 20.4596 164.142 19.1079C164.142 17.1009 164.861 15.5341 166.301 14.4078C167.741 13.2609 169.616 12.6874 171.927 12.6874C174.279 12.6874 176.174 13.2609 177.613 14.4078C179.053 15.5341 179.823 17.1111 179.924 19.1386H174.299C174.258 18.4424 174.005 17.8996 173.539 17.5105C173.072 17.1009 172.474 16.8961 171.744 16.8961C171.116 16.8961 170.609 17.0701 170.224 17.4183C169.839 17.746 169.646 18.2273 169.646 18.8622C169.646 19.5585 169.97 20.1012 170.619 20.4903C171.268 20.8794 172.281 21.2993 173.66 21.7498C175.039 22.2209 176.154 22.6714 177.005 23.1015C177.877 23.5316 178.627 24.1563 179.255 24.9755C179.884 25.7946 180.198 26.8494 180.198 28.1396C180.198 29.3684 179.884 30.4846 179.255 31.4881C178.647 32.4916 177.755 33.2903 176.579 33.8843C175.404 34.4782 174.015 34.7751 172.413 34.7751ZM207.757 17.4183L203.165 34.5601H197.417L194.741 23.4395L191.974 34.5601H186.257L181.635 17.4183H186.835L189.237 29.6756L192.096 17.4183H197.6L200.489 29.6142L202.861 17.4183H207.757ZM212.354 15.6366C211.442 15.6366 210.692 15.3704 210.104 14.8378C209.537 14.2849 209.252 13.609 209.252 12.8103C209.252 11.9912 209.537 11.3153 210.104 10.7828C210.692 10.2298 211.442 9.95337 212.354 9.95337C213.247 9.95337 213.976 10.2298 214.544 10.7828C215.132 11.3153 215.426 11.9912 215.426 12.8103C215.426 13.609 215.132 14.2849 214.544 14.8378C213.976 15.3704 213.247 15.6366 212.354 15.6366ZM214.939 17.4183V34.5601H209.739V17.4183H214.939ZM228.165 30.1057V34.5601H225.52C223.634 34.5601 222.164 34.0993 221.11 33.1777C220.055 32.2356 219.529 30.7098 219.529 28.6004V21.7806H217.461V17.4183H219.529V13.2404H224.729V17.4183H228.135V21.7806H224.729V28.6618C224.729 29.1738 224.851 29.5425 225.094 29.7678C225.337 29.9931 225.742 30.1057 226.31 30.1057H228.165ZM230.028 25.9892C230.028 24.2074 230.382 22.651 231.092 21.3198C231.822 19.9885 232.825 18.9646 234.103 18.2478C235.4 17.5309 236.879 17.1726 238.542 17.1726C240.671 17.1726 242.444 17.7358 243.864 18.8622C245.303 19.9885 246.245 21.5758 246.692 23.6238H241.158C240.691 22.3131 239.789 21.6577 238.451 21.6577C237.498 21.6577 236.738 22.0366 236.17 22.7943C235.602 23.5316 235.319 24.5965 235.319 25.9892C235.319 27.3819 235.602 28.4571 236.17 29.2148C236.738 29.9521 237.498 30.3207 238.451 30.3207C239.789 30.3207 240.691 29.6653 241.158 28.3546H246.692C246.245 30.3617 245.303 31.9386 243.864 33.0855C242.424 34.2324 240.65 34.8059 238.542 34.8059C236.879 34.8059 235.4 34.4475 234.103 33.7307C232.825 33.0138 231.822 31.9899 231.092 30.6587C230.382 29.3274 230.028 27.771 230.028 25.9892ZM259.904 17.234C261.85 17.234 263.411 17.8894 264.587 19.2001C265.763 20.4903 266.351 22.2721 266.351 24.5454V34.5601H261.181V25.2519C261.181 24.105 260.887 23.2141 260.299 22.5793C259.711 21.9444 258.92 21.627 257.927 21.627C256.933 21.627 256.143 21.9444 255.555 22.5793C254.967 23.2141 254.674 24.105 254.674 25.2519V34.5601H249.474V11.8273H254.674V19.7223C255.2 18.9646 255.92 18.3604 256.833 17.9098C257.745 17.4593 258.768 17.234 259.904 17.234ZM285.959 25.7127C285.959 26.2043 285.929 26.7162 285.868 27.2487H274.099C274.181 28.3137 274.516 29.1329 275.103 29.7063C275.711 30.2593 276.451 30.5358 277.323 30.5358C278.621 30.5358 279.523 29.9828 280.029 28.8769H285.564C285.281 30.0033 284.764 31.017 284.013 31.9182C283.283 32.8193 282.361 33.5259 281.246 34.0379C280.131 34.5498 278.884 34.8059 277.505 34.8059C275.843 34.8059 274.364 34.4475 273.066 33.7307C271.768 33.0138 270.754 31.9899 270.025 30.6587C269.295 29.3274 268.93 27.771 268.93 25.9892C268.93 24.2074 269.285 22.651 269.994 21.3198C270.724 19.9885 271.738 18.9646 273.035 18.2478C274.333 17.5309 275.823 17.1726 277.505 17.1726C279.147 17.1726 280.607 17.5208 281.884 18.217C283.161 18.9133 284.155 19.9066 284.864 21.1969C285.594 22.4871 285.959 23.9924 285.959 25.7127ZM280.637 24.3303C280.637 23.4292 280.333 22.7124 279.725 22.1799C279.117 21.6474 278.357 21.3812 277.444 21.3812C276.573 21.3812 275.833 21.6372 275.225 22.1492C274.637 22.6612 274.272 23.3883 274.13 24.3303H280.637ZM293.903 20.2753C294.511 19.3332 295.271 18.596 296.183 18.0634C297.096 17.5105 298.11 17.234 299.224 17.234V22.7943H297.795C296.498 22.7943 295.525 23.0811 294.876 23.6545C294.227 24.2074 293.903 25.1905 293.903 26.6036V34.5601H288.703V17.4183H293.903V20.2753ZM303.063 34.7444C302.379 34.7444 301.817 34.5447 301.376 34.1454C300.95 33.7306 300.737 33.2238 300.737 32.6247C300.737 32.0103 300.95 31.4958 301.376 31.081C301.817 30.6663 302.379 30.459 303.063 30.459C303.732 30.459 304.28 30.6663 304.706 31.081C305.146 31.4958 305.367 32.0103 305.367 32.6247C305.367 33.2238 305.146 33.7306 304.706 34.1454C304.28 34.5447 303.732 34.7444 303.063 34.7444ZM309.074 22.7329C308.504 22.7329 308.035 22.5665 307.668 22.2337C307.313 21.8881 307.135 21.4657 307.135 20.9665C307.135 20.4545 307.313 20.0321 307.668 19.6993C308.035 19.3537 308.504 19.1809 309.074 19.1809C309.632 19.1809 310.088 19.3537 310.442 19.6993C310.81 20.0321 310.994 20.4545 310.994 20.9665C310.994 21.4657 310.81 21.8881 310.442 22.2337C310.088 22.5665 309.632 22.7329 309.074 22.7329ZM310.689 23.8465V34.5601H307.439V23.8465H310.689ZM317.872 34.7137C316.833 34.7137 315.895 34.4897 315.059 34.0417C314.236 33.5937 313.583 32.9537 313.101 32.1217C312.633 31.2897 312.398 30.3169 312.398 29.2033C312.398 28.1025 312.639 27.1361 313.12 26.3041C313.602 25.4593 314.261 24.8129 315.097 24.3649C315.933 23.9169 316.871 23.6929 317.91 23.6929C318.949 23.6929 319.886 23.9169 320.723 24.3649C321.559 24.8129 322.218 25.4593 322.699 26.3041C323.181 27.1361 323.421 28.1025 323.421 29.2033C323.421 30.3041 323.174 31.2769 322.68 32.1217C322.199 32.9537 321.534 33.5937 320.685 34.0417C319.848 34.4897 318.911 34.7137 317.872 34.7137ZM317.872 31.8721C318.493 31.8721 319.019 31.6417 319.449 31.1809C319.893 30.7201 320.114 30.0609 320.114 29.2033C320.114 28.3457 319.9 27.6865 319.468 27.2257C319.05 26.7649 318.531 26.5345 317.91 26.5345C317.277 26.5345 316.75 26.7649 316.332 27.2257C315.914 27.6737 315.705 28.3329 315.705 29.2033C315.705 30.0609 315.908 30.7201 316.313 31.1809C316.731 31.6417 317.251 31.8721 317.872 31.8721Z" fill="white"/>
</g>
<defs>
<clipPath id="clip0_1469_236">
<rect width="325" height="48" fill="white"/>
</clipPath>
</defs>
</svg>
