<svg width="280" height="46" viewBox="0 0 280 46" fill="none" xmlns="http://www.w3.org/2000/svg">
<path d="M8.91047 33.4193C8.76491 33.5066 8.60479 33.5429 8.4301 33.5284C8.25535 33.5139 8.09522 33.4338 7.94966 33.2883C6.90147 31.8033 6.10079 30.2019 5.54759 28.4841C4.99438 26.7662 4.71777 24.9902 4.71777 23.1559V9.18013C4.71777 8.62695 4.95799 8.23388 5.4384 8.00095C5.91881 7.76801 6.37739 7.8117 6.81416 8.13195L13.6273 13.2418C13.8602 13.4166 13.9913 13.6494 14.0203 13.9406C14.0494 14.2318 13.9913 14.4938 13.8457 14.7268C12.5354 16.8522 11.3417 19.0359 10.2644 21.2779C9.1871 23.5198 8.64841 25.8928 8.64841 28.3968C8.64841 29.0664 8.6921 29.7361 8.77947 30.4058C8.86679 31.0754 9.01241 31.7304 9.21622 32.3711C9.27441 32.6039 9.27441 32.8151 9.21622 33.0044C9.15797 33.1936 9.0561 33.3319 8.91047 33.4193Z" fill="#111111"/>
<path d="M22.1875 39.3152C19.1595 39.3152 16.5827 38.2525 14.4572 36.1271C12.3318 34.0015 11.269 31.4248 11.269 28.3968C11.269 25.8345 12.1061 22.952 13.7803 19.7493C15.4545 16.5465 17.7182 13.1399 20.5716 9.52951C20.9793 9.00544 21.5179 8.73613 22.1875 8.72157C22.8572 8.70701 23.3959 8.96176 23.8035 9.48588C26.6277 13.0671 28.8843 16.4738 30.573 19.7056C32.2617 22.9375 33.106 25.8345 33.106 28.3968C33.106 31.4248 32.0433 34.0015 29.9179 36.1271C27.7924 38.2525 25.2157 39.3152 22.1875 39.3152Z" fill="#BEF264"/>
<path d="M35.4206 33.4629C35.275 33.3464 35.1658 33.1936 35.0931 33.0044C35.0203 32.8151 35.0421 32.6039 35.1586 32.3711C35.3624 31.7304 35.508 31.0754 35.5953 30.4058C35.6827 29.7361 35.7264 29.0664 35.7264 28.3968C35.7264 25.8928 35.1877 23.5198 34.1104 21.2779C33.0331 19.0359 31.8394 16.8522 30.5291 14.7268C30.3835 14.4938 30.3254 14.2318 30.3544 13.9406C30.3835 13.6494 30.5146 13.4166 30.7475 13.2418L37.5606 8.13195C37.9974 7.8117 38.456 7.76801 38.9364 8.00095C39.4168 8.23388 39.657 8.62695 39.657 9.18013V23.1559C39.657 24.9902 39.3804 26.7662 38.8272 28.4841C38.274 30.2019 37.4733 31.8033 36.4251 33.2883C36.2795 33.4629 36.1122 33.5648 35.9229 33.5939C35.7336 33.6231 35.5662 33.5794 35.4206 33.4629Z" fill="#111111"/>
<path d="M74.4425 12.7209L66.9725 33.7809H60.5525L53.0825 12.7209H58.5425L63.7625 28.6209L69.0125 12.7209H74.4425ZM84.2069 33.9909C82.6669 33.9909 81.2869 33.7409 80.0669 33.2409C78.8469 32.7409 77.8669 32.0009 77.1269 31.0209C76.4069 30.0409 76.0269 28.8609 75.9869 27.4809H81.4469C81.5269 28.2609 81.7969 28.8609 82.2569 29.2809C82.7169 29.6809 83.3169 29.8809 84.0569 29.8809C84.8169 29.8809 85.4169 29.7109 85.8569 29.3709C86.2969 29.0109 86.5169 28.5209 86.5169 27.9009C86.5169 27.3809 86.3369 26.9509 85.9769 26.6109C85.6369 26.2709 85.2069 25.9909 84.6869 25.7709C84.1869 25.5509 83.4669 25.3009 82.5269 25.0209C81.1669 24.6009 80.0569 24.1809 79.1969 23.7609C78.3369 23.3409 77.5969 22.7209 76.9769 21.9009C76.3569 21.0809 76.0469 20.0109 76.0469 18.6909C76.0469 16.7309 76.7569 15.2009 78.1769 14.1009C79.5969 12.9809 81.4469 12.4209 83.7269 12.4209C86.0469 12.4209 87.9169 12.9809 89.3369 14.1009C90.7569 15.2009 91.5169 16.7409 91.6169 18.7209H86.0669C86.0269 18.0409 85.7769 17.5109 85.3169 17.1309C84.8569 16.7309 84.2669 16.5309 83.5463 16.5309C82.9269 16.5309 82.4269 16.7009 82.0469 17.0409C81.6669 17.3609 81.4769 17.8309 81.4769 18.4509C81.4769 19.1309 81.7969 19.6609 82.4363 20.0409C83.0769 20.4209 84.0769 20.8309 85.4369 21.2709C86.7969 21.7309 87.8969 22.1709 88.7369 22.5909C89.5969 23.0109 90.3369 23.6209 90.9569 24.4209C91.5769 25.2209 91.8869 26.2509 91.8869 27.5109C91.8869 28.7109 91.5769 29.8009 90.9569 30.7809C90.3569 31.7609 89.4769 32.5409 88.3169 33.1209C87.1569 33.7009 85.7869 33.9909 84.2069 33.9909ZM100.174 29.8209H106.894V33.7809H95.0438V12.7209H100.174V29.8209Z" fill="#BEF264"/>
<path d="M119.301 33.9909C117.321 33.9909 115.501 33.5309 113.841 32.6109C112.201 31.6909 110.891 30.4109 109.911 28.7709C108.951 27.1109 108.471 25.2509 108.471 23.1909C108.471 21.1309 108.951 19.2809 109.911 17.6409C110.891 16.0009 112.201 14.7209 113.841 13.8009C115.501 12.8809 117.321 12.4209 119.301 12.4209C121.281 12.4209 123.091 12.8809 124.731 13.8009C126.391 14.7209 127.691 16.0009 128.631 17.6409C129.591 19.2809 130.071 21.1309 130.071 23.1909C130.071 25.2509 129.591 27.1109 128.631 28.7709C127.671 30.4109 126.371 31.6909 124.731 32.6109C123.091 33.5309 121.281 33.9909 119.301 33.9909ZM119.301 29.3109C120.981 29.3109 122.321 28.7509 123.321 27.6309C124.341 26.5109 124.851 25.0309 124.851 23.1909C124.851 21.3309 124.341 19.8509 123.321 18.7509C122.321 17.6309 120.981 17.0709 119.301 17.0709C117.601 17.0709 116.241 17.6209 115.221 18.7209C114.221 19.8209 113.721 21.3109 113.721 23.1909C113.721 25.0509 114.221 26.5409 115.221 27.6609C116.241 28.7609 117.601 29.3109 119.301 29.3109ZM138.054 19.4109C138.554 18.6309 139.244 18.0009 140.124 17.5209C141.004 17.0409 142.034 16.8009 143.214 16.8009C144.594 16.8009 145.844 17.1509 146.964 17.8509C148.084 18.5509 148.964 19.5509 149.604 20.8509C150.264 22.1509 150.594 23.6609 150.594 25.3809C150.594 27.1009 150.264 28.6209 149.604 29.9409C148.964 31.2409 148.084 32.2509 146.964 32.9709C145.844 33.6709 144.594 34.0209 143.214 34.0209C142.054 34.0209 141.024 33.7809 140.124 33.3009C139.244 32.8209 138.554 32.2009 138.054 31.4409V41.7609H132.924V17.0409H138.054V19.4109ZM145.374 25.3809C145.374 24.1009 145.014 23.1009 144.294 22.3809C143.594 21.6409 142.724 21.2709 141.684 21.2709C140.664 21.2709 139.794 21.6409 139.074 22.3809C138.374 23.1209 138.024 24.1309 138.024 25.4109C138.024 26.6909 138.374 27.7009 139.074 28.4409C139.794 29.1809 140.664 29.5509 141.684 29.5509C142.704 29.5509 143.574 29.1809 144.294 28.4409C145.014 27.6809 145.374 26.6609 145.374 25.3809ZM162.616 29.4309V33.7809H160.006C158.146 33.7809 156.696 33.3309 155.656 32.4309C154.616 31.5109 154.096 30.0209 154.096 27.9609V21.3009H152.056V17.0409H154.096V12.9609H159.226V17.0409H162.586V21.3009H159.226V28.0209C159.226 28.5209 159.346 28.8809 159.586 29.1009C159.826 29.3209 160.226 29.4309 160.786 29.4309H162.616ZM168.053 15.3009C167.153 15.3009 166.413 15.0409 165.833 14.5209C165.273 13.9809 164.993 13.3209 164.993 12.5409C164.993 11.7409 165.273 11.0809 165.833 10.5609C166.413 10.0209 167.153 9.75095 168.053 9.75095C168.933 9.75095 169.653 10.0209 170.213 10.5609C170.793 11.0809 171.083 11.7409 171.083 12.5409C171.083 13.3209 170.793 13.9809 170.213 14.5209C169.653 15.0409 168.933 15.3009 168.053 15.3009ZM170.603 17.0409V33.7809H165.473V17.0409H170.603ZM195.681 16.8609C197.761 16.8609 199.411 17.4909 200.631 18.7509C201.871 20.0109 202.491 21.7609 202.491 24.0009V33.7809H197.391V24.6909C197.391 23.6109 197.101 22.7809 196.521 22.2009C195.961 21.6009 195.181 21.3009 194.181 21.3009C193.181 21.3009 192.391 21.6009 191.811 22.2009C191.251 22.7809 190.971 23.6109 190.971 24.6909V33.7809H185.871V24.6909C185.871 23.6109 185.581 22.7809 185.001 22.2009C184.441 21.6009 183.661 21.3009 182.661 21.3009C181.661 21.3009 180.871 21.6009 180.291 22.2009C179.731 22.7809 179.451 23.6109 179.451 24.6909V33.7809H174.321V17.0409H179.451V19.1409C179.971 18.4409 180.651 17.8909 181.491 17.4909C182.331 17.0709 183.281 16.8609 184.341 16.8609C185.601 16.8609 186.721 17.1309 187.701 17.6709C188.701 18.2109 189.481 18.9809 190.041 19.9809C190.621 19.0609 191.411 18.3109 192.411 17.7309C193.411 17.1509 194.501 16.8609 195.681 16.8609ZM208.659 15.3009C207.759 15.3009 207.019 15.0409 206.439 14.5209C205.879 13.9809 205.599 13.3209 205.599 12.5409C205.599 11.7409 205.879 11.0809 206.439 10.5609C207.019 10.0209 207.759 9.75095 208.659 9.75095C209.539 9.75095 210.259 10.0209 210.819 10.5609C211.399 11.0809 211.689 11.7409 211.689 12.5409C211.689 13.3209 211.399 13.9809 210.819 14.5209C210.259 15.0409 209.539 15.3009 208.659 15.3009ZM211.209 17.0409V33.7809H206.079V17.0409H211.209ZM221.736 34.0209C220.276 34.0209 218.976 33.7709 217.836 33.2709C216.696 32.7709 215.796 32.0909 215.136 31.2309C214.476 30.3509 214.106 29.3709 214.026 28.2909H219.096C219.156 28.8709 219.426 29.3409 219.906 29.7009C220.386 30.0609 220.976 30.2409 221.676 30.2409C222.316 30.2409 222.806 30.1209 223.146 29.8809C223.506 29.6209 223.686 29.2909 223.686 28.8909C223.686 28.4109 223.436 28.0609 222.936 27.8409C222.436 27.6009 221.626 27.3409 220.506 27.0609C219.306 26.7809 218.306 26.4909 217.506 26.1909C216.706 25.8709 216.016 25.3809 215.436 24.7209C214.856 24.0409 214.566 23.1309 214.566 21.9909C214.566 21.0309 214.826 20.1609 215.346 19.3809C215.886 18.5809 216.666 17.9509 217.686 17.4909C218.726 17.0309 219.956 16.8009 221.376 16.8009C223.476 16.8009 225.126 17.3209 226.326 18.3609C227.546 19.4009 228.246 20.7809 228.426 22.5009H223.686C223.606 21.9209 223.346 21.4609 222.906 21.1209C222.486 20.7809 221.926 20.6109 221.226 20.6109C220.626 20.6109 220.166 20.7309 219.846 20.9709C219.526 21.1909 219.366 21.5009 219.366 21.9009C219.366 22.3809 219.616 22.7409 220.116 22.9809C220.636 23.2209 221.436 23.4609 222.516 23.7009C223.756 24.0209 224.766 24.3409 225.546 24.6609C226.326 24.9609 227.006 25.4609 227.586 26.1609C228.186 26.8409 228.496 27.7609 228.516 28.9209C228.516 29.9009 228.236 30.7809 227.676 31.5609C227.136 32.3209 226.346 32.9209 225.306 33.3609C224.286 33.8009 223.096 34.0209 221.736 34.0209ZM247.435 25.1409C247.435 25.6209 247.405 26.1209 247.345 26.6409H235.735C235.815 27.6809 236.145 28.4809 236.725 29.0409C237.325 29.5809 238.055 29.8509 238.915 29.8509C240.195 29.8509 241.085 29.3109 241.585 28.2309H247.045C246.765 29.3309 246.255 30.3209 245.515 31.2009C244.795 32.0809 243.885 32.7709 242.785 33.2709C241.685 33.7709 240.455 34.0209 239.095 34.0209C237.455 34.0209 235.995 33.6709 234.715 32.9709C233.435 32.2709 232.435 31.2709 231.715 29.9709C230.995 28.6709 230.635 27.1509 230.635 25.4109C230.635 23.6709 230.985 22.1509 231.685 20.8509C232.405 19.5509 233.405 18.5509 234.685 17.8509C235.965 17.1509 237.435 16.8009 239.095 16.8009C240.715 16.8009 242.155 17.1409 243.415 17.8209C244.675 18.5009 245.655 19.4709 246.355 20.7309C247.075 21.9909 247.435 23.4609 247.435 25.1409ZM242.185 23.7909C242.185 22.9109 241.885 22.2109 241.285 21.6909C240.685 21.1709 239.935 20.9109 239.035 20.9109C238.175 20.9109 237.445 21.1609 236.845 21.6609C236.265 22.1609 235.905 22.8709 235.765 23.7909H242.185ZM255.271 19.8309C255.871 18.9109 256.621 18.1909 257.521 17.6709C258.421 17.1309 259.421 16.8609 260.521 16.8609V22.2909H259.111C257.831 22.2909 256.871 22.5709 256.231 23.1309C255.591 23.6709 255.271 24.6309 255.271 26.0109V33.7809H250.141V17.0409H255.271V19.8309ZM263.243 33.9009C262.793 33.9009 262.423 33.7709 262.133 33.5109C261.853 33.2409 261.713 32.9109 261.713 32.5209C261.713 32.1209 261.853 31.7859 262.133 31.5159C262.423 31.2459 262.793 31.1109 263.243 31.1109C263.683 31.1109 264.043 31.2459 264.323 31.5159C264.613 31.7859 264.758 32.1209 264.758 32.5209C264.758 32.9109 264.613 33.2409 264.323 33.5109C264.043 33.7709 263.683 33.9009 263.243 33.9009ZM267.567 24.5409C267.117 24.5409 266.747 24.4109 266.457 24.1509C266.177 23.8809 266.037 23.5509 266.037 23.1609C266.037 22.7609 266.177 22.4309 266.457 22.1709C266.747 21.9009 267.117 21.7659 267.567 21.7659C268.007 21.7659 268.367 21.9009 268.647 22.1709C268.937 22.4309 269.082 22.7609 269.082 23.1609C269.082 23.5509 268.937 23.8809 268.647 24.1509C268.367 24.4109 268.007 24.5409 267.567 24.5409ZM268.842 25.4109V33.7809H266.277V25.4109H268.842ZM274.511 33.9009C273.691 33.9009 272.951 33.7259 272.291 33.3759C271.641 33.0259 271.126 32.5259 270.746 31.8759C270.376 31.2259 270.191 30.4659 270.191 29.5959C270.191 28.7359 270.381 27.9809 270.761 27.3309C271.141 26.6709 271.661 26.1659 272.321 25.8159C272.981 25.4659 273.721 25.2909 274.541 25.2909C275.361 25.2909 276.101 25.4659 276.761 25.8159C277.421 26.1659 277.941 26.6709 278.321 27.3309C278.701 27.9809 278.891 28.7359 278.891 29.5959C278.891 30.4559 278.696 31.2159 278.306 31.8759C277.926 32.5259 277.401 33.0259 276.731 33.3759C276.071 33.7259 275.331 33.9009 274.511 33.9009ZM274.511 31.6809C275.001 31.6809 275.416 31.5009 275.756 31.1409C276.106 30.7809 276.281 30.2659 276.281 29.5959C276.281 28.9259 276.111 28.4109 275.771 28.0509C275.441 27.6909 275.031 27.5109 274.541 27.5109C274.041 27.5109 273.626 27.6909 273.296 28.0509C272.966 28.4009 272.801 28.9159 272.801 29.5959C272.801 30.2659 272.961 30.7809 273.281 31.1409C273.611 31.5009 274.021 31.6809 274.511 31.6809Z" fill="#111111"/>
</svg>
