<svg width="218" height="36" viewBox="0 0 218 36" fill="none" xmlns="http://www.w3.org/2000/svg">
<path d="M6.68738 25.9826C6.57417 26.0505 6.44962 26.0788 6.31376 26.0675C6.17784 26.0562 6.0533 25.9939 5.94008 25.8807C5.12482 24.7257 4.50207 23.4802 4.0718 22.1441C3.64153 20.808 3.42639 19.4266 3.42639 18V7.12993C3.42639 6.69967 3.61322 6.39396 3.98688 6.21278C4.36053 6.03161 4.71721 6.06559 5.05691 6.31467L10.356 10.289C10.5372 10.4249 10.6391 10.606 10.6617 10.8325C10.6843 11.059 10.6391 11.2628 10.5259 11.444C9.50678 13.0971 8.5783 14.7955 7.74044 16.5393C6.90253 18.283 6.48355 20.1286 6.48355 22.0762C6.48355 22.597 6.51753 23.1179 6.58549 23.6387C6.6534 24.1596 6.76667 24.6691 6.92519 25.1673C6.97044 25.3484 6.97044 25.5127 6.92519 25.6599C6.87988 25.807 6.80064 25.9146 6.68738 25.9826Z" fill="white"/>
<path d="M17.0139 30.5683C14.6587 30.5683 12.6545 29.7418 11.0014 28.0886C9.34831 26.4354 8.52173 24.4313 8.52173 22.0762C8.52173 20.0833 9.17278 17.8414 10.4749 15.3504C11.7771 12.8593 13.5378 10.2098 15.7571 7.40165C16.0741 6.99405 16.493 6.78458 17.0139 6.77326C17.5348 6.76193 17.9537 6.96007 18.2707 7.36772C20.4674 10.1531 22.2225 12.8027 23.5359 15.3164C24.8493 17.8301 25.5061 20.0833 25.5061 22.0762C25.5061 24.4313 24.6795 26.4354 23.0264 28.0886C21.3732 29.7418 19.3691 30.5683 17.0139 30.5683Z" fill="#BEF264"/>
<path d="M27.3064 26.0166C27.1932 25.9259 27.1082 25.807 27.0517 25.6599C26.9951 25.5127 27.012 25.3484 27.1026 25.1673C27.2611 24.6691 27.3744 24.1596 27.4423 23.6387C27.5103 23.1179 27.5442 22.597 27.5442 22.0762C27.5442 20.1286 27.1253 18.283 26.2873 16.5393C25.4495 14.7955 24.521 13.0971 23.5019 11.444C23.3887 11.2628 23.3435 11.059 23.3661 10.8325C23.3887 10.606 23.4906 10.4249 23.6718 10.289L28.9709 6.31467C29.3106 6.06559 29.6673 6.03161 30.0409 6.21278C30.4146 6.39396 30.6014 6.69967 30.6014 7.12993V18C30.6014 19.4266 30.3862 20.808 29.956 22.1441C29.5257 23.4802 28.903 24.7257 28.0877 25.8807C27.9744 26.0166 27.8443 26.0957 27.6971 26.1185C27.5499 26.1411 27.4197 26.1071 27.3064 26.0166Z" fill="white"/>
<path d="M57.6567 9.88389L51.8467 26.2639H46.8533L41.0433 9.88389H45.29L49.35 22.2506L53.4333 9.88389H57.6567ZM65.2512 26.4272C64.0534 26.4272 62.9801 26.2328 62.0312 25.8439C61.0823 25.455 60.3201 24.8794 59.7445 24.1172C59.1845 23.355 58.889 22.4372 58.8579 21.3639H63.1045C63.1667 21.9706 63.3767 22.4372 63.7345 22.7639C64.0923 23.075 64.559 23.2306 65.1345 23.2306C65.7256 23.2306 66.1923 23.0983 66.5345 22.8339C66.8767 22.5539 67.0479 22.1728 67.0479 21.6906C67.0479 21.2861 66.9079 20.9517 66.6279 20.6872C66.3634 20.4228 66.029 20.205 65.6245 20.0339C65.2356 19.8628 64.6756 19.6683 63.9445 19.4506C62.8867 19.1239 62.0234 18.7972 61.3545 18.4706C60.6856 18.1439 60.1101 17.6617 59.6279 17.0239C59.1456 16.3861 58.9045 15.5539 58.9045 14.5272C58.9045 13.0028 59.4567 11.8128 60.5612 10.9572C61.6656 10.0861 63.1045 9.65056 64.8778 9.65056C66.6823 9.65056 68.1367 10.0861 69.2412 10.9572C70.3456 11.8128 70.9367 13.0106 71.0145 14.5506H66.6979C66.6667 14.0217 66.4723 13.6094 66.1145 13.3139C65.7567 13.0028 65.2978 12.8472 64.7374 12.8472C64.2556 12.8472 63.8667 12.9794 63.5712 13.2439C63.2756 13.4928 63.1279 13.8583 63.1279 14.3406C63.1279 14.8694 63.3767 15.2817 63.874 15.5772C64.3723 15.8728 65.1501 16.1917 66.2079 16.5339C67.2656 16.8917 68.1212 17.2339 68.7745 17.5606C69.4434 17.8872 70.019 18.3617 70.5012 18.9839C70.9834 19.6061 71.2245 20.4072 71.2245 21.3872C71.2245 22.3206 70.9834 23.1683 70.5012 23.9306C70.0345 24.6928 69.3501 25.2994 68.4479 25.7506C67.5456 26.2017 66.4801 26.4272 65.2512 26.4272ZM77.6699 23.1839H82.8965V26.2639H73.6799V9.88389H77.6699V23.1839Z" fill="#BEF264"/>
<path d="M92.5463 26.4272C91.0063 26.4272 89.5908 26.0694 88.2997 25.3539C87.0241 24.6383 86.0052 23.6428 85.243 22.3672C84.4963 21.0761 84.123 19.6294 84.123 18.0272C84.123 16.425 84.4963 14.9861 85.243 13.7106C86.0052 12.435 87.0241 11.4394 88.2997 10.7239C89.5908 10.0083 91.0063 9.65055 92.5463 9.65055C94.0863 9.65055 95.4941 10.0083 96.7697 10.7239C98.0608 11.4394 99.0719 12.435 99.803 13.7106C100.55 14.9861 100.923 16.425 100.923 18.0272C100.923 19.6294 100.55 21.0761 99.803 22.3672C99.0563 23.6428 98.0452 24.6383 96.7697 25.3539C95.4941 26.0694 94.0863 26.4272 92.5463 26.4272ZM92.5463 22.7872C93.853 22.7872 94.8952 22.3517 95.673 21.4806C96.4663 20.6094 96.863 19.4583 96.863 18.0272C96.863 16.5806 96.4663 15.4294 95.673 14.5739C94.8952 13.7028 93.853 13.2672 92.5463 13.2672C91.2241 13.2672 90.1663 13.695 89.373 14.5505C88.5952 15.4061 88.2063 16.565 88.2063 18.0272C88.2063 19.4739 88.5952 20.6328 89.373 21.5039C90.1663 22.3594 91.2241 22.7872 92.5463 22.7872ZM107.133 15.0872C107.521 14.4805 108.058 13.9905 108.743 13.6172C109.427 13.2439 110.228 13.0572 111.146 13.0572C112.219 13.0572 113.191 13.3294 114.063 13.8739C114.934 14.4183 115.618 15.1961 116.116 16.2072C116.629 17.2183 116.886 18.3928 116.886 19.7306C116.886 21.0683 116.629 22.2506 116.116 23.2772C115.618 24.2883 114.934 25.0739 114.063 25.6339C113.191 26.1783 112.219 26.4506 111.146 26.4506C110.244 26.4506 109.443 26.2639 108.743 25.8906C108.058 25.5172 107.521 25.035 107.133 24.4439V32.4705H103.143V13.2439H107.133V15.0872ZM112.826 19.7306C112.826 18.735 112.546 17.9572 111.986 17.3972C111.441 16.8217 110.765 16.5339 109.956 16.5339C109.163 16.5339 108.486 16.8217 107.926 17.3972C107.381 17.9728 107.109 18.7583 107.109 19.7539C107.109 20.7494 107.381 21.535 107.926 22.1106C108.486 22.6861 109.163 22.9739 109.956 22.9739C110.749 22.9739 111.426 22.6861 111.986 22.1106C112.546 21.5194 112.826 20.7261 112.826 19.7306ZM126.236 22.8806V26.2639H124.206C122.759 26.2639 121.631 25.9139 120.822 25.2139C120.014 24.4983 119.609 23.3394 119.609 21.7372V16.5572H118.022V13.2439H119.609V10.0705H123.599V13.2439H126.212V16.5572H123.599V21.7839C123.599 22.1728 123.692 22.4528 123.879 22.6239C124.066 22.795 124.377 22.8806 124.812 22.8806H126.236ZM130.465 11.8905C129.765 11.8905 129.189 11.6883 128.738 11.2839C128.303 10.8639 128.085 10.3506 128.085 9.74388C128.085 9.12166 128.303 8.60833 128.738 8.20388C129.189 7.78388 129.765 7.57388 130.465 7.57388C131.149 7.57388 131.709 7.78388 132.145 8.20388C132.596 8.60833 132.822 9.12166 132.822 9.74388C132.822 10.3506 132.596 10.8639 132.145 11.2839C131.709 11.6883 131.149 11.8905 130.465 11.8905ZM132.448 13.2439V26.2639H128.458V13.2439H132.448ZM151.953 13.1039C153.571 13.1039 154.855 13.5939 155.803 14.5739C156.768 15.5539 157.25 16.915 157.25 18.6572V26.2639H153.283V19.1939C153.283 18.3539 153.058 17.7083 152.607 17.2572C152.171 16.7906 151.565 16.5572 150.787 16.5572C150.009 16.5572 149.395 16.7906 148.943 17.2572C148.508 17.7083 148.29 18.3539 148.29 19.1939V26.2639H144.323V19.1939C144.323 18.3539 144.098 17.7083 143.647 17.2572C143.211 16.7906 142.605 16.5572 141.827 16.5572C141.049 16.5572 140.435 16.7906 139.983 17.2572C139.548 17.7083 139.33 18.3539 139.33 19.1939V26.2639H135.34V13.2439H139.33V14.8772C139.735 14.3328 140.263 13.905 140.917 13.5939C141.57 13.2672 142.309 13.1039 143.133 13.1039C144.113 13.1039 144.985 13.3139 145.747 13.7339C146.525 14.1539 147.131 14.7528 147.567 15.5306C148.018 14.815 148.632 14.2317 149.41 13.7806C150.188 13.3294 151.036 13.1039 151.953 13.1039ZM162.047 11.8905C161.347 11.8905 160.772 11.6883 160.32 11.2839C159.885 10.8639 159.667 10.3506 159.667 9.74388C159.667 9.12166 159.885 8.60833 160.32 8.20388C160.772 7.78388 161.347 7.57388 162.047 7.57388C162.732 7.57388 163.292 7.78388 163.727 8.20388C164.178 8.60833 164.404 9.12166 164.404 9.74388C164.404 10.3506 164.178 10.8639 163.727 11.2839C163.292 11.6883 162.732 11.8905 162.047 11.8905ZM164.03 13.2439V26.2639H160.04V13.2439H164.03ZM172.218 26.4506C171.083 26.4506 170.072 26.2561 169.185 25.8672C168.298 25.4783 167.598 24.9494 167.085 24.2805C166.572 23.5961 166.284 22.8339 166.222 21.9939H170.165C170.212 22.445 170.422 22.8106 170.795 23.0906C171.168 23.3706 171.627 23.5105 172.172 23.5105C172.67 23.5105 173.051 23.4172 173.315 23.2306C173.595 23.0283 173.735 22.7717 173.735 22.4605C173.735 22.0872 173.541 21.815 173.152 21.6439C172.763 21.4572 172.133 21.255 171.262 21.0372C170.328 20.8194 169.551 20.5939 168.928 20.3605C168.306 20.1117 167.77 19.7306 167.318 19.2172C166.867 18.6883 166.642 17.9806 166.642 17.0939C166.642 16.3472 166.844 15.6705 167.248 15.0639C167.668 14.4417 168.275 13.9517 169.068 13.5939C169.877 13.2361 170.834 13.0572 171.938 13.0572C173.572 13.0572 174.855 13.4617 175.788 14.2705C176.737 15.0794 177.282 16.1528 177.422 17.4906H173.735C173.673 17.0394 173.471 16.6817 173.128 16.4172C172.802 16.1528 172.366 16.0205 171.822 16.0205C171.355 16.0205 170.997 16.1139 170.748 16.3006C170.5 16.4717 170.375 16.7128 170.375 17.0239C170.375 17.3972 170.57 17.6772 170.958 17.8639C171.363 18.0506 171.985 18.2372 172.825 18.4239C173.79 18.6728 174.575 18.9217 175.182 19.1706C175.788 19.4039 176.317 19.7928 176.768 20.3372C177.235 20.8661 177.476 21.5817 177.492 22.4839C177.492 23.2461 177.274 23.9306 176.838 24.5372C176.418 25.1283 175.804 25.595 174.995 25.9372C174.202 26.2794 173.276 26.4506 172.218 26.4506ZM192.206 19.5439C192.206 19.9172 192.183 20.3061 192.136 20.7106H183.106C183.169 21.5194 183.425 22.1417 183.876 22.5772C184.343 22.9972 184.911 23.2072 185.58 23.2072C186.575 23.2072 187.268 22.7872 187.656 21.9472H191.903C191.685 22.8028 191.289 23.5728 190.713 24.2572C190.153 24.9417 189.445 25.4783 188.59 25.8672C187.734 26.2561 186.778 26.4506 185.72 26.4506C184.444 26.4506 183.309 26.1783 182.313 25.6339C181.318 25.0894 180.54 24.3117 179.98 23.3005C179.42 22.2894 179.14 21.1072 179.14 19.7539C179.14 18.4006 179.412 17.2183 179.956 16.2072C180.516 15.1961 181.294 14.4183 182.29 13.8739C183.285 13.3294 184.429 13.0572 185.72 13.0572C186.98 13.0572 188.1 13.3217 189.08 13.8506C190.06 14.3794 190.822 15.1339 191.366 16.1139C191.926 17.0939 192.206 18.2372 192.206 19.5439ZM188.123 18.4939C188.123 17.8094 187.89 17.265 187.423 16.8605C186.956 16.4561 186.373 16.2539 185.673 16.2539C185.004 16.2539 184.436 16.4483 183.97 16.8372C183.519 17.2261 183.239 17.7783 183.13 18.4939H188.123ZM198.301 15.4139C198.768 14.6983 199.351 14.1383 200.051 13.7339C200.751 13.3139 201.529 13.1039 202.385 13.1039V17.3272H201.288C200.292 17.3272 199.546 17.545 199.048 17.9805C198.55 18.4005 198.301 19.1472 198.301 20.2206V26.2639H194.311V13.2439H198.301V15.4139ZM204.502 26.3572C204.152 26.3572 203.864 26.2561 203.638 26.0539C203.42 25.8439 203.312 25.5872 203.312 25.2839C203.312 24.9728 203.42 24.7122 203.638 24.5022C203.864 24.2922 204.152 24.1872 204.502 24.1872C204.844 24.1872 205.124 24.2922 205.342 24.5022C205.567 24.7122 205.68 24.9728 205.68 25.2839C205.68 25.5872 205.567 25.8439 205.342 26.0539C205.124 26.2561 204.844 26.3572 204.502 26.3572ZM207.865 19.0772C207.515 19.0772 207.227 18.9761 207.001 18.7739C206.783 18.5639 206.675 18.3072 206.675 18.0039C206.675 17.6928 206.783 17.4361 207.001 17.2339C207.227 17.0239 207.515 16.9189 207.865 16.9189C208.207 16.9189 208.487 17.0239 208.705 17.2339C208.93 17.4361 209.043 17.6928 209.043 18.0039C209.043 18.3072 208.93 18.5639 208.705 18.7739C208.487 18.9761 208.207 19.0772 207.865 19.0772ZM208.856 19.7539V26.2639H206.861V19.7539H208.856ZM213.265 26.3572C212.627 26.3572 212.052 26.2211 211.539 25.9489C211.033 25.6767 210.632 25.2878 210.337 24.7822C210.049 24.2767 209.905 23.6856 209.905 23.0089C209.905 22.34 210.053 21.7528 210.349 21.2472C210.644 20.7339 211.049 20.3411 211.562 20.0689C212.075 19.7967 212.651 19.6606 213.289 19.6606C213.926 19.6606 214.502 19.7967 215.015 20.0689C215.529 20.3411 215.933 20.7339 216.229 21.2472C216.524 21.7528 216.672 22.34 216.672 23.0089C216.672 23.6778 216.52 24.2689 216.217 24.7822C215.921 25.2878 215.513 25.6767 214.992 25.9489C214.479 26.2211 213.903 26.3572 213.265 26.3572ZM213.265 24.6305C213.646 24.6305 213.969 24.4906 214.234 24.2106C214.506 23.9305 214.642 23.53 214.642 23.0089C214.642 22.4878 214.51 22.0872 214.245 21.8072C213.989 21.5272 213.67 21.3872 213.289 21.3872C212.9 21.3872 212.577 21.5272 212.32 21.8072C212.064 22.0794 211.935 22.48 211.935 23.0089C211.935 23.53 212.06 23.9305 212.309 24.2106C212.565 24.4906 212.884 24.6305 213.265 24.6305Z" fill="white"/>
</svg>
