<svg width="307" height="55" viewBox="0 0 307 55" fill="none" xmlns="http://www.w3.org/2000/svg">
<g clip-path="url(#clip0_4374_410)">
<path d="M29.9865 49.1962C29.7394 48.8862 29.4923 49.0722 29.4923 48.8862C28.01 49.2582 25.2307 48.2662 24.0572 48.3902C24.3042 48.0182 23.6865 48.0802 23.6865 47.8322C23.4395 48.2042 23.1925 47.8322 22.8219 47.9562C22.4513 47.0262 20.9689 47.7082 20.7837 46.5302C19.919 46.5302 19.6101 46.0342 18.7455 45.5382C18.8072 45.4762 18.869 45.4762 18.9307 45.4142C18.4984 45.3522 18.4985 45.1042 18.1278 45.1042L18.2513 44.8562C17.5719 44.7322 17.3249 43.6782 16.3367 43.3062C16.0279 43.2442 15.3485 42.1902 14.9779 41.9422C14.7926 41.8182 14.4838 41.8182 14.9161 41.7562C14.8543 41.6942 14.8543 41.5703 14.9161 41.5082C14.4838 41.3842 14.4221 41.0122 13.8662 40.8262C13.8044 40.6402 13.9897 40.5162 13.8662 40.3922C13.7427 40.3302 13.5573 40.4542 13.4338 40.3922C13.372 41.5082 14.6073 41.6322 14.9779 42.5622C14.8543 42.4382 14.6691 42.0662 14.5456 42.3142C14.4838 42.5002 15.0397 43.1822 15.0397 42.8102C14.8543 42.9342 14.7926 42.6242 14.9161 42.5622C15.1015 42.8722 15.472 42.8102 15.472 43.0582C15.2867 43.2442 15.0397 42.8722 15.1015 43.1822C15.6573 43.4922 15.5955 43.8022 15.9044 44.2362C15.6573 43.9262 15.5955 44.4842 15.3485 44.2362C15.2867 43.3062 14.2367 43.4922 14.2367 42.5622C14.1132 42.2522 13.9897 42.5002 13.8044 42.3762C14.0514 42.1282 13.0633 41.2602 13.0633 41.5702C12.7544 41.1982 12.9397 41.0742 12.8779 40.8262C12.6309 40.7642 12.8161 41.0742 12.6309 40.8883C12.8779 40.4542 12.3221 39.8962 11.9515 39.4622L12.1985 39.3382C11.7662 39.0902 11.7045 38.5942 11.3956 38.0362C11.0251 38.5942 12.1367 39.8342 11.9515 40.0822C11.9515 40.1442 12.3839 40.6402 12.5074 40.8883C13.0015 41.7562 13.372 42.8102 14.0514 43.3062C13.9279 43.2442 13.9897 42.8722 14.1749 43.0582C14.1749 43.2442 14.0514 43.4302 14.0514 43.6162C14.4221 43.9882 14.7308 44.2982 15.1015 44.6702C14.2985 44.1742 13.4955 43.6782 12.9397 42.9342C13.2485 42.8722 13.5573 43.4302 13.8044 43.3682C13.1868 42.8722 13.372 42.6862 13.125 42.0662C12.8779 41.8802 13.1868 42.3142 12.9397 42.3762C12.1367 41.6322 11.5191 41.1982 11.1486 40.5162C11.2103 40.4542 11.2721 40.3922 11.2721 40.2682C11.2103 40.2063 11.2103 40.2062 11.1486 40.1442C11.5191 40.5162 11.6427 40.8262 12.075 40.8883C11.8897 40.7022 12.075 40.6402 11.828 40.4542C11.7045 40.2062 11.5191 40.5782 11.3956 40.3922C11.5191 40.2062 11.3956 39.9582 11.3956 39.7722C11.2721 39.7722 11.1486 39.7722 11.0868 39.5862C10.9633 39.5242 10.9015 39.5862 10.8397 39.7102C10.7779 39.6482 10.7779 39.5242 10.7162 39.4622V39.4002C10.6544 39.3382 10.5927 39.2142 10.5309 39.1522C10.0368 37.8502 9.72798 36.1142 9.04858 34.9982C9.2339 34.2542 8.92506 32.7662 8.73975 32.3942C8.92506 32.0842 8.80154 30.6583 8.67802 30.4102C8.36918 30.5342 8.73975 31.2162 8.43098 31.4022C8.12214 30.0382 8.61623 28.4882 8.4927 27.2483C8.61623 27.2483 8.73975 27.2483 8.73975 27.1862C8.5545 27.0002 8.86334 26.6282 8.80154 26.1942C9.04858 25.6362 8.24566 27.0002 8.24566 27.5582C8.18394 27.6822 7.93683 27.5582 7.99862 27.8682C7.99862 28.3022 8.12214 29.1703 7.8751 29.7902C7.75156 29.7902 7.75156 29.6662 7.62803 29.7282C7.56627 30.0382 7.50451 30.4102 7.44274 30.7202C7.38098 30.5962 7.31921 30.4102 7.31921 30.3482C7.0104 28.7982 7.31921 27.0002 7.19569 25.6982C7.44274 25.6982 7.44274 25.3262 7.62803 25.2023C7.56627 25.6982 7.44274 26.3182 7.75156 26.4423C7.99862 24.0242 8.49271 21.3582 9.60446 18.7542C10.4074 16.8322 11.5809 14.9102 13.0015 13.3603C13.125 13.5462 12.9397 13.9802 13.0015 14.1663C14.2367 12.8642 15.0397 11.3143 16.3985 10.4462C16.4603 10.7563 15.8426 11.0042 15.8426 11.2522C16.3985 10.6942 16.5838 10.8803 17.2014 10.6942C17.3867 10.4462 16.9543 10.6942 16.8925 10.4462C17.2632 10.1983 17.5102 9.88823 17.7573 9.70221C17.7573 9.76424 17.6955 9.76424 17.6955 9.82627C18.3749 9.64025 18.4367 9.26827 18.9307 9.14427C18.869 9.08224 18.7455 9.02021 18.5602 9.08224C18.6837 9.02021 18.869 8.89622 19.0543 8.83425C18.9925 8.83425 18.9925 8.89622 18.9307 8.89622C19.3014 8.71026 18.9925 8.95825 18.9925 9.08224C19.0543 9.08224 19.1161 9.02021 19.1161 9.02021C18.7455 9.26827 18.4985 9.39226 18.3749 9.82627C18.5602 9.70221 18.622 9.82627 18.869 9.64025C19.1161 9.51625 18.8072 9.33023 18.9925 9.20623C19.1779 9.33023 19.4249 9.26827 19.6101 9.26827C19.6101 9.14427 19.6719 9.02021 19.7955 8.95825C19.8572 8.83425 19.7955 8.77222 19.7337 8.77222C19.7955 8.71026 19.8572 8.71026 19.9808 8.64823C19.9808 8.64823 20.0425 8.64823 20.0425 8.71026C21.0925 8.21422 22.266 7.78027 23.3778 7.40822C24.0572 7.34626 24.9218 7.34626 25.2924 6.91224C25.1689 6.91224 25.0453 6.97421 24.9836 6.91224C25.0453 6.91224 25.1689 6.85024 25.2307 6.85024C25.3542 6.97421 25.5395 6.85024 25.3542 7.09827C25.416 7.09827 25.416 7.09827 25.4777 7.03624C25.4777 7.09827 25.4777 7.09827 25.5395 7.16023C25.6012 7.16023 25.663 7.09827 25.7247 6.97421C25.7865 6.97421 25.8483 6.97421 25.9101 6.91224L25.8483 6.97421C26.3424 6.85024 26.7748 6.91224 27.4542 6.78824C27.4542 6.72624 27.4542 6.66425 27.4542 6.60224C27.5777 6.60224 27.6394 6.54025 27.7629 6.54025V6.60224C28.01 6.47824 28.2571 6.72624 28.2571 6.60224C28.3188 6.60224 28.3188 6.60224 28.3806 6.60224C28.3806 6.72624 28.3188 6.78824 28.3188 6.85024C28.6277 6.85024 28.8129 6.85024 28.9365 6.66425C28.8747 6.60224 28.8129 6.60224 28.7512 6.60224C28.8747 6.60224 28.9982 6.54025 29.1217 6.47824C29.3071 6.54025 29.3688 6.60224 29.3688 6.85024C29.6776 6.29224 30.6659 6.97421 31.0982 6.85024C31.2835 6.85024 31.2217 6.60224 31.3453 6.47824C31.407 6.47824 31.4688 6.47824 31.5305 6.47824C31.8393 6.72624 32.2717 6.97421 32.8276 7.03624C32.3335 6.91224 32.8893 6.85024 32.9511 6.78824C32.8276 6.78824 32.8276 6.72624 32.8276 6.66425C33.0129 6.66425 33.1982 6.72624 33.3835 6.72624C33.3835 6.85024 33.4452 6.91224 33.5687 6.91224C33.6923 6.91224 33.6923 6.85024 33.6923 6.72624C33.8775 6.72624 34.0011 6.72624 34.1864 6.78824C34.1246 7.03624 34.4952 7.09827 34.6187 7.28423C34.1246 7.16023 33.5687 6.97421 33.3835 7.28423C35.3599 7.71824 37.5216 8.33821 39.6216 9.39226C39.6216 9.39226 39.6216 9.39226 39.6216 9.45422H39.6833C40.0539 9.64025 40.4245 9.82627 40.7951 10.0122C41.0421 10.1362 41.2274 10.2602 41.4745 10.4462C41.4745 10.5083 41.4745 10.5702 41.598 10.5702H41.6598C41.9068 10.7563 42.1539 10.8803 42.4009 11.0662C42.648 11.4383 42.8951 11.9342 43.3274 11.8102C44.2539 13.2362 45.242 13.7942 46.045 15.2822C46.1067 15.0342 46.2921 15.8402 46.6008 15.9022C46.1068 15.8402 46.9097 16.2123 46.4156 16.1502C46.8479 16.5842 46.9715 16.7703 47.0332 17.2662C46.9097 17.0183 46.8479 16.9562 46.7862 17.2042C46.7244 17.5763 47.2185 17.1422 47.4038 17.5142C47.0332 17.5142 47.1567 17.7622 47.2185 18.0722C47.4038 17.8862 47.342 17.7003 47.5273 17.7622C47.7744 18.0102 47.4038 18.0722 47.4655 18.2583C47.6509 18.0102 47.7126 18.1343 47.9596 18.2583C47.6509 18.3202 48.1449 18.7542 47.7744 18.5682C48.0214 18.8782 48.0832 19.0643 47.9596 19.3742C47.7126 19.0022 47.8979 18.7542 47.5273 18.8163C48.2685 19.4362 47.8979 20.8622 48.7626 20.9863C48.2067 21.1103 48.7626 21.3582 48.4538 21.4202C48.8244 21.5442 48.639 22.0402 49.0714 22.1642C49.0097 22.4743 48.8861 22.6602 48.8243 22.9702C49.0097 23.2182 49.0714 23.7143 49.3802 23.7762C49.1949 23.9622 49.3184 24.4582 49.1332 24.6442C49.3802 24.5203 49.5037 24.5203 49.6891 24.7682C49.3802 25.0162 49.6273 25.2642 49.442 25.3262C49.9978 26.7522 49.3184 29.6662 49.6273 30.7822C49.2567 30.5962 49.3802 31.2162 49.1332 31.2162C49.5655 31.4022 49.1949 31.7122 49.3802 32.0223C48.5155 32.5182 49.3802 33.8822 48.2067 34.1922C48.3303 35.0602 47.8361 35.4323 47.4655 36.3622C47.4038 36.3002 47.4038 36.2382 47.342 36.1762C47.2802 36.6102 47.0332 36.6722 47.1567 37.0442L46.9097 36.9202C46.9097 37.6022 45.8597 37.9742 45.6127 39.0282C45.5509 39.3382 44.6244 40.1442 44.3774 40.5782C44.2539 40.7642 44.3156 41.0742 44.1921 40.6402C44.1303 40.7022 44.0068 40.7022 43.945 40.7022C43.8832 41.1362 43.5127 41.2602 43.3891 41.8182C43.2656 41.8802 43.0803 41.6942 42.9568 41.8802C42.9568 42.0042 43.0803 42.1902 43.0186 42.3142C44.1303 42.2522 44.1303 40.9502 44.995 40.5162C44.9333 40.7022 44.5626 40.8882 44.8097 41.0122C44.995 41.0122 45.5509 40.3922 45.242 40.4542C45.4273 40.5782 45.0568 40.7022 44.995 40.6402C45.3038 40.3922 45.1803 40.0822 45.4274 40.0202C45.6127 40.1442 45.242 40.4542 45.6127 40.3922C45.8597 39.8342 46.1685 39.7722 46.5391 39.4622C46.2921 39.7102 46.8479 39.7722 46.6008 40.0202C45.6744 40.2063 45.9832 41.2602 45.0568 41.3842C44.8097 41.5702 44.995 41.6322 44.9333 41.8182C44.6244 41.6322 43.945 42.6862 44.1921 42.6242C43.8832 42.9342 43.698 42.8102 43.4509 42.8722C43.3891 43.1202 43.698 42.9342 43.5745 43.1202C43.1421 42.9342 42.5862 43.5542 42.2157 43.9882L42.0303 43.8022C41.845 44.2982 41.3509 44.3602 40.7951 44.7322C41.4127 45.0422 42.4627 43.7402 42.7715 43.9262C42.8333 43.9262 43.3274 43.4302 43.5127 43.2442C44.3156 42.6242 45.3038 42.1282 45.6744 41.4462C45.6127 41.5702 45.242 41.5702 45.4274 41.3842C45.6127 41.3222 45.7979 41.4462 45.9832 41.4462C46.9715 40.0822 48.2067 38.9662 49.1332 37.3542C49.1949 37.2922 49.2567 37.1682 49.3184 37.0442C49.1949 37.4162 49.0097 37.7262 48.8861 38.0982C47.8979 38.7802 47.5273 40.7642 46.3538 41.0742C46.4156 41.7562 45.7979 41.9422 45.4891 42.7482C45.3038 42.9962 45.1803 42.5622 44.995 42.8722C45.1803 43.7402 43.4509 43.6782 43.5127 44.4842C43.3892 44.5462 43.2038 44.6082 43.0803 44.7322H43.0186C42.9568 44.7942 42.9568 44.7942 42.8951 44.8562C42.5862 45.0422 42.3392 45.2282 42.0921 45.4142C41.2274 45.9102 40.0539 46.2822 39.1274 46.7782V46.7162C38.8804 46.8402 38.5716 46.7782 38.6334 47.0262C38.448 47.1502 38.2628 47.2742 38.0775 47.3982C38.0157 47.3982 38.0157 47.3982 37.9539 47.3982C37.9539 47.3982 37.8922 47.3362 37.8304 47.3362C37.7069 47.3362 37.7069 47.3362 37.6451 47.3982C36.8422 47.4602 35.7922 47.8322 35.4834 48.0802C35.1746 47.8942 33.754 48.2042 33.507 48.3282C33.6305 48.5142 34.0011 48.3282 34.3099 48.3282C34.1246 48.3902 33.9393 48.4522 33.8775 48.5762C33.8158 48.5762 33.8158 48.5762 33.754 48.5762C33.6923 48.3902 33.507 48.5762 33.4452 48.5142H33.507C33.4452 48.2662 33.2599 48.1422 32.9511 48.2042C32.9511 48.3282 32.9511 48.3902 32.8893 48.5142C33.0129 48.5142 33.3835 48.3282 33.3835 48.5142C33.3217 48.5142 33.3217 48.5762 33.3835 48.5762C33.2599 48.7002 33.0746 48.7002 32.9511 48.7622C32.7041 48.7622 32.3952 48.7622 32.1482 48.7622C32.0864 48.7002 32.0247 48.7002 31.9011 48.6382C31.8393 48.7002 31.7158 48.7002 31.6541 48.7622C31.2835 48.7622 30.8511 48.8242 30.5423 48.8862C30.5423 48.7622 30.5423 48.6382 30.4188 48.6382C30.2335 48.8862 29.8629 48.5762 29.4306 48.7002C28.9982 48.5762 29.6776 48.8862 30.2953 49.0102C30.2335 49.0722 30.1717 49.1342 29.9865 49.1962ZM21.3396 50.0642C20.4749 49.2582 18.6837 48.8862 18.3749 48.2662C17.8808 48.2042 17.1397 47.2742 16.522 47.1502C16.8308 47.1502 16.5838 46.9642 16.522 46.8402C16.3985 46.9642 16.2749 47.0262 16.1514 47.0262C16.1514 46.5302 15.6573 46.2202 15.225 45.9102C15.5337 46.0962 15.7809 46.2202 16.1514 46.2822C16.1514 46.1582 16.1514 46.0342 16.2749 46.0342C16.7073 46.4682 17.2014 46.9022 17.7573 47.3362C18.4985 48.0182 22.3277 49.7542 23.0071 50.0642C23.0071 50.0642 22.8836 50.3122 22.9454 50.3122C23.2542 50.4982 23.5013 50.1262 23.563 50.5602C22.5748 50.6842 22.2042 50.0022 21.3396 50.0642ZM49.8126 35.6802V35.7422C49.7508 35.7422 49.8126 35.6802 49.8126 35.6802ZM24.8601 6.97421C24.7983 7.03624 24.7366 7.03624 24.7366 7.03624C24.7366 6.97421 24.7983 6.97421 24.8601 6.97421ZM19.6101 8.58627C19.6719 8.52423 19.6719 8.52423 19.7337 8.52423C19.6719 8.52423 19.6101 8.58627 19.6101 8.58627ZM29.4923 6.54025C29.3688 6.54025 29.3071 6.54025 29.2453 6.47824C29.3071 6.47824 29.3688 6.47824 29.4306 6.47824H29.4923C29.4923 6.47824 29.4923 6.47824 29.4923 6.54025ZM30.6041 6.66425C30.5423 6.60224 30.357 6.54025 30.1717 6.54025C30.1717 6.47824 30.2335 6.41624 30.2335 6.41624C30.2953 6.41624 30.357 6.41624 30.4188 6.41624C30.4188 6.41624 30.4805 6.41624 30.4805 6.47824C30.4805 6.47824 30.4805 6.47824 30.4805 6.41624C30.5423 6.41624 30.5423 6.41624 30.6041 6.41624C30.6659 6.54025 30.7276 6.60224 30.6041 6.66425ZM32.6423 6.85024C32.3335 6.91224 32.1482 6.78824 31.8393 6.60224C32.0247 6.60224 32.2717 6.66425 32.457 6.72624C32.5187 6.72624 32.5805 6.78824 32.6423 6.85024ZM54.6301 15.6543C54.5066 15.7162 54.4449 15.7162 54.3213 15.4682C53.3331 13.3603 51.542 10.3222 48.9479 7.78027C46.4156 5.17625 43.0186 3.06825 39.9304 1.95225C40.1157 2.01425 40.3627 2.13825 40.2392 2.26225C37.5216 1.20825 34.9275 0.588248 32.457 0.340248C25.7865 -0.713753 18.8072 0.712251 13.4338 4.18425C13.4955 4.30825 13.4955 4.37024 13.3103 4.49425C11.3338 5.73424 8.5545 7.90427 6.331 10.7563C4.10751 13.6083 2.37813 17.2042 1.63696 20.4283C1.69873 20.2422 1.76049 19.9322 1.88402 20.0562C0.278165 26.4423 0.71051 31.8982 2.934 36.6102C3.05753 36.4862 2.62518 35.8662 2.99576 35.9282C3.24282 36.6102 3.55164 37.3542 3.92222 38.0362C4.35456 39.0282 4.84867 40.3302 5.52807 40.6402C3.79869 37.2302 2.62518 33.3242 2.50165 29.8522C2.74871 30.3482 2.68695 31.4022 3.05753 31.8362C3.18105 29.4802 2.62518 26.3182 3.42811 24.0862C3.24282 25.2642 3.11929 26.8762 3.24282 28.4882C3.24282 29.6662 3.79869 32.9522 4.16927 33.2622C4.10751 33.2002 4.10751 32.8902 4.16927 32.8902C4.35456 33.2622 3.92222 33.4482 4.23104 33.5102C4.23104 33.3863 4.2928 33.3863 4.35456 33.3863C4.9722 34.7503 5.77513 36.8582 6.39276 37.9122C7.13393 39.2762 8.12214 40.5162 9.2339 41.6322C9.2339 41.6942 9.29563 41.6942 9.29563 41.7562C9.41915 42.0662 9.85151 42.4382 9.97503 42.6862C10.0368 42.8102 9.9133 42.9962 9.97503 43.1202C10.9015 44.8562 12.2603 46.5922 13.9279 47.9562C14.9779 49.1962 16.6455 50.4982 18.6837 51.6142C20.6602 52.6682 22.9454 53.5362 25.0453 54.0322C26.5277 54.4042 28.3188 54.4662 29.4306 54.7142C30.9129 55.0242 33.507 54.5902 34.804 54.3422C42.5862 53.1642 50.3067 47.8322 54.1978 40.1442C58.2124 32.3942 58.0889 22.9082 54.6301 15.6543Z" fill="#C9E365"/>
<path d="M90.9296 15.7871L82.6403 39.2463H75.5162L67.2271 15.7871H73.2858L79.0783 33.4985L84.9041 15.7871H90.9296ZM101.765 39.4803C100.056 39.4803 98.5247 39.2018 97.1709 38.6448C95.8171 38.0878 94.7296 37.2635 93.9084 36.1719C93.1094 35.0803 92.6878 33.7658 92.6434 32.2286H98.7022C98.791 33.0975 99.0906 33.7658 99.6011 34.2337C100.112 34.6792 100.777 34.902 101.598 34.902C102.442 34.902 103.108 34.7127 103.596 34.3339C104.084 33.9329 104.328 33.3871 104.328 32.6965C104.328 32.1172 104.129 31.6382 103.729 31.2595C103.352 30.8808 102.875 30.5689 102.298 30.3238C101.743 30.0787 100.944 29.8003 99.9007 29.4884C98.3915 29.0205 97.1598 28.5527 96.2054 28.0848C95.2511 27.617 94.43 26.9263 93.742 26.0129C93.054 25.0995 92.71 23.9076 92.71 22.4372C92.71 20.2539 93.4978 18.5496 95.0736 17.3243C96.6493 16.0767 98.7022 15.4529 101.232 15.4529C103.807 15.4529 105.882 16.0767 107.458 17.3243C109.033 18.5496 109.877 20.2651 109.988 22.4706H103.829C103.785 21.7132 103.507 21.1228 102.997 20.6995C102.486 20.2539 101.832 20.0311 101.033 20.0311C100.345 20.0311 99.7897 20.2205 99.368 20.5992C98.9464 20.9557 98.7355 21.4792 98.7355 22.1699C98.7355 22.9273 99.0906 23.5177 99.8008 23.941C100.511 24.3643 101.621 24.821 103.13 25.3111C104.639 25.8235 105.86 26.3137 106.792 26.7815C107.746 27.2494 108.567 27.9289 109.255 28.82C109.943 29.7111 110.287 30.8585 110.287 32.262C110.287 33.5987 109.943 34.8129 109.255 35.9046C108.589 36.9962 107.613 37.8651 106.326 38.5111C105.038 39.1572 103.518 39.4803 101.765 39.4803ZM119.483 34.8352H126.94V39.2463H113.79V15.7871H119.483V34.8352ZM147.762 39.4803C145.565 39.4803 143.546 38.9679 141.704 37.943C139.884 36.9182 138.43 35.4924 137.343 33.6656C136.277 31.8165 135.745 29.7446 135.745 27.4499C135.745 25.1552 136.277 23.0944 137.343 21.2676C138.43 19.4408 139.884 18.0149 141.704 16.9901C143.546 15.9653 145.565 15.4529 147.762 15.4529C149.96 15.4529 151.968 15.9653 153.788 16.9901C155.63 18.0149 157.073 19.4408 158.116 21.2676C159.181 23.0944 159.714 25.1552 159.714 27.4499C159.714 29.7446 159.181 31.8165 158.116 33.6656C157.05 35.4924 155.608 36.9182 153.788 37.943C151.968 38.9679 149.96 39.4803 147.762 39.4803ZM147.762 34.2671C149.627 34.2671 151.114 33.6433 152.223 32.3957C153.355 31.1481 153.921 29.4995 153.921 27.4499C153.921 25.378 153.355 23.7294 152.223 22.5041C151.114 21.2565 149.627 20.6327 147.762 20.6327C145.876 20.6327 144.367 21.2453 143.235 22.4706C142.125 23.696 141.57 25.3557 141.57 27.4499C141.57 29.5218 142.125 31.1815 143.235 32.4291C144.367 33.6544 145.876 34.2671 147.762 34.2671ZM168.573 23.2392C169.128 22.3704 169.894 21.6686 170.87 21.1339C171.847 20.5992 172.99 20.3319 174.299 20.3319C175.83 20.3319 177.217 20.7218 178.46 21.5015C179.703 22.2813 180.68 23.3952 181.39 24.8433C182.122 26.2914 182.488 27.9734 182.488 29.8894C182.488 31.8053 182.122 33.4985 181.39 34.9689C180.68 36.417 179.703 37.542 178.46 38.3441C177.217 39.1238 175.83 39.5137 174.299 39.5137C173.012 39.5137 171.869 39.2463 170.87 38.7116C169.894 38.177 169.128 37.4863 168.573 36.6397V48.1354H162.88V20.5992H168.573V23.2392ZM176.696 29.8894C176.696 28.4635 176.296 27.3496 175.497 26.5476C174.721 25.7233 173.755 25.3111 172.601 25.3111C171.469 25.3111 170.504 25.7233 169.705 26.5476C168.928 27.3719 168.54 28.497 168.54 29.9228C168.54 31.3486 168.928 32.4737 169.705 33.298C170.504 34.1223 171.469 34.5344 172.601 34.5344C173.733 34.5344 174.698 34.1223 175.497 33.298C176.296 32.4514 176.696 31.3152 176.696 29.8894ZM195.828 34.4008V39.2463H192.932C190.868 39.2463 189.259 38.7451 188.105 37.7425C186.951 36.7177 186.374 35.058 186.374 32.7633V25.3446H184.11V20.5992H186.374V16.0544H192.066V20.5992H195.795V25.3446H192.066V32.8301C192.066 33.3871 192.199 33.7881 192.466 34.0332C192.732 34.2782 193.176 34.4008 193.797 34.4008H195.828ZM201.862 18.661C200.863 18.661 200.042 18.3714 199.398 17.7922C198.777 17.1906 198.466 16.4554 198.466 15.5866C198.466 14.6954 198.777 13.9603 199.398 13.381C200.042 12.7795 200.863 12.4787 201.862 12.4787C202.839 12.4787 203.637 12.7795 204.259 13.381C204.903 13.9603 205.224 14.6954 205.224 15.5866C205.224 16.4554 204.903 17.1906 204.259 17.7922C203.637 18.3714 202.839 18.661 201.862 18.661ZM204.692 20.5992V39.2463H198.999V20.5992H204.692ZM232.52 20.3987C234.828 20.3987 236.659 21.1005 238.013 22.5041C239.389 23.9076 240.077 25.857 240.077 28.3522V39.2463H234.418V29.1208C234.418 27.9177 234.096 26.9932 233.452 26.3471C232.831 25.6787 231.965 25.3446 230.856 25.3446C229.746 25.3446 228.869 25.6787 228.226 26.3471C227.604 26.9932 227.294 27.9177 227.294 29.1208V39.2463H221.634V29.1208C221.634 27.9177 221.313 26.9932 220.669 26.3471C220.048 25.6787 219.182 25.3446 218.072 25.3446C216.963 25.3446 216.086 25.6787 215.442 26.3471C214.821 26.9932 214.51 27.9177 214.51 29.1208V39.2463H208.818V20.5992H214.51V22.9385C215.087 22.1587 215.842 21.5461 216.774 21.1005C217.706 20.6327 218.76 20.3987 219.937 20.3987C221.335 20.3987 222.578 20.6995 223.665 21.301C224.775 21.9025 225.64 22.7603 226.262 23.8742C226.905 22.8494 227.782 22.0139 228.892 21.3678C230.001 20.7218 231.211 20.3987 232.52 20.3987ZM246.921 18.661C245.922 18.661 245.101 18.3714 244.458 17.7922C243.836 17.1906 243.526 16.4554 243.526 15.5866C243.526 14.6954 243.836 13.9603 244.458 13.381C245.101 12.7795 245.922 12.4787 246.921 12.4787C247.898 12.4787 248.697 12.7795 249.318 13.381C249.962 13.9603 250.283 14.6954 250.283 15.5866C250.283 16.4554 249.962 17.1906 249.318 17.7922C248.697 18.3714 247.898 18.661 246.921 18.661ZM249.751 20.5992V39.2463H244.058V20.5992H249.751ZM261.433 39.5137C259.813 39.5137 258.37 39.2352 257.105 38.6782C255.84 38.1213 254.841 37.3638 254.109 36.4058C253.377 35.4256 252.966 34.3339 252.877 33.1309H258.503C258.57 33.777 258.87 34.3005 259.402 34.7015C259.935 35.1025 260.59 35.303 261.366 35.303C262.077 35.303 262.62 35.1694 262.998 34.902C263.397 34.6124 263.597 34.2448 263.597 33.7992C263.597 33.2646 263.319 32.8747 262.765 32.6296C262.21 32.3623 261.311 32.0727 260.068 31.7608C258.736 31.4489 257.627 31.1258 256.739 30.7916C255.851 30.4352 255.086 29.8894 254.442 29.1542C253.798 28.3967 253.477 27.383 253.477 26.1132C253.477 25.0438 253.765 24.0747 254.342 23.2058C254.941 22.3147 255.807 21.6129 256.939 21.1005C258.093 20.5881 259.458 20.3319 261.033 20.3319C263.364 20.3319 265.195 20.9111 266.526 22.0696C267.88 23.2281 268.657 24.7653 268.857 26.6813H263.597C263.508 26.0352 263.22 25.5228 262.731 25.1441C262.265 24.7653 261.644 24.5759 260.867 24.5759C260.201 24.5759 259.691 24.7096 259.336 24.977C258.981 25.222 258.803 25.5673 258.803 26.0129C258.803 26.5476 259.08 26.9486 259.635 27.216C260.212 27.4833 261.1 27.7506 262.298 28.018C263.674 28.3744 264.795 28.7309 265.661 29.0873C266.526 29.4215 267.281 29.9785 267.925 30.7582C268.59 31.5157 268.934 32.5405 268.957 33.8327C268.957 34.9243 268.646 35.9046 268.024 36.7734C267.425 37.62 266.549 38.2884 265.394 38.7785C264.263 39.2686 262.942 39.5137 261.433 39.5137ZM289.95 29.622C289.95 30.1567 289.917 30.7137 289.85 31.2929H276.967C277.056 32.4514 277.422 33.3425 278.066 33.9663C278.731 34.5678 279.541 34.8686 280.496 34.8686C281.916 34.8686 282.904 34.2671 283.459 33.0641H289.518C289.207 34.2894 288.641 35.3922 287.82 36.3724C287.021 37.3527 286.011 38.1213 284.79 38.6782C283.57 39.2352 282.205 39.5137 280.696 39.5137C278.876 39.5137 277.256 39.1238 275.835 38.3441C274.415 37.5643 273.305 36.4504 272.506 35.0023C271.707 33.5542 271.308 31.861 271.308 29.9228C271.308 27.9846 271.696 26.2914 272.473 24.8433C273.272 23.3952 274.382 22.2813 275.802 21.5015C277.222 20.7218 278.854 20.3319 280.696 20.3319C282.493 20.3319 284.091 20.7106 285.489 21.4681C286.888 22.2256 287.975 23.3061 288.752 24.7096C289.551 26.1132 289.95 27.7506 289.95 29.622ZM284.124 28.1182C284.124 27.138 283.792 26.3582 283.126 25.779C282.46 25.1997 281.628 24.9101 280.629 24.9101C279.675 24.9101 278.865 25.1886 278.199 25.7456C277.555 26.3025 277.156 27.0934 277 28.1182H284.124ZM298.646 23.7071C299.312 22.6823 300.144 21.8803 301.143 21.301C302.141 20.6995 303.251 20.3987 304.472 20.3987V26.4473H302.907C301.487 26.4473 300.421 26.7592 299.711 27.383C299.001 27.9846 298.646 29.0539 298.646 30.5911V39.2463H292.953V20.5992H298.646V23.7071Z" fill="#111111"/>
</g>
<defs>
<clipPath id="clip0_4374_410">
<rect width="305.161" height="55" fill="white" transform="translate(0.919434)"/>
</clipPath>
</defs>
</svg>
